<svg xmlns="http://www.w3.org/2000/svg" viewBox="0 0 256 256" role="img" aria-labelledby="title desc">
  <title id="title">さけとる アイコン</title>
  <desc id="desc">深いネイビーの背景に金色の酒器とラベルを描いたアイコン</desc>
  <defs>
    <linearGradient id="bg" x1="0%" y1="0%" x2="100%" y2="100%">
      <stop offset="0%" stop-color="#111a29" />
      <stop offset="55%" stop-color="#182338" />
      <stop offset="100%" stop-color="#0a0f1a" />
    </linearGradient>
    <linearGradient id="gold" x1="0%" y1="0%" x2="100%" y2="100%">
      <stop offset="0%" stop-color="#f5d660" />
      <stop offset="55%" stop-color="#c9a84c" />
      <stop offset="100%" stop-color="#8b6b1a" />
    </linearGradient>
  </defs>
  <rect width="256" height="256" rx="56" fill="url(#bg)" />
  <circle cx="56" cy="56" r="42" fill="#f5d660" fill-opacity="0.12" />
  <circle cx="206" cy="46" r="34" fill="#5c81bc" fill-opacity="0.18" />
  <path d="M128 52c15 0 28 13 28 28v18c0 8 4 16 11 21l15 10c6 4 10 11 10 19v29c0 15-13 28-28 28H92c-15 0-28-13-28-28v-29c0-8 4-15 10-19l15-10c7-5 11-13 11-21V80c0-15 13-28 28-28z" fill="url(#gold)" />
  <rect x="92" y="82" width="72" height="26" rx="10" fill="#0f1624" fill-opacity="0.55" />
  <rect x="84" y="118" width="88" height="56" rx="18" fill="#fdfaf5" fill-opacity="0.12" stroke="#fdfaf5" stroke-opacity="0.22" />
  <path d="M104 149c6-11 16-18 24-18 9 0 18 7 24 18" fill="none" stroke="#f5d660" stroke-width="10" stroke-linecap="round" />
  <circle cx="128" cy="159" r="8" fill="#f5d660" />
  <path d="M92 196h72" stroke="#f5f0e8" stroke-opacity="0.22" stroke-width="8" stroke-linecap="round" />
</svg>
